HIERARCHY
ROOT Hips
{
    OFFSET 0.0 0.0 0.0
    CHANNELS 6 Xposition Yposition Zposition Zrotation Xrotation Yrotation
    JOINT Chest
    {
        OFFSET 0.0 10.0 0.0
        CHANNELS 3 Zrotation Xrotation Yrotation
        JOINT Head
        {
            OFFSET 0.0 10.0 0.0
            CHANNELS 3 Zrotation Xrotation Yrotation
            End Site
            {
                OFFSET 0.0 5.0 0.0
            }
        }
        JOINT LeftArm
        {
            OFFSET -5.0 8.0 0.0
            CHANNELS 3 Zrotation Xrotation Yrotation
            End Site
            {
                OFFSET -15.0 0.0 0.0
            }
        }
        JOINT RightArm
        {
            OFFSET 5.0 8.0 0.0
            CHANNELS 3 Zrotation Xrotation Yrotation
            End Site
            {
                OFFSET 15.0 0.0 0.0
            }
        }
    }
    JOINT LeftLeg
    {
        OFFSET -3.0 -10.0 0.0
        CHANNELS 3 Zrotation Xrotation Yrotation
        End Site
        {
            OFFSET 0.0 -20.0 0.0
        }
    }
    JOINT RightLeg
    {
        OFFSET 3.0 -10.0 0.0
        CHANNELS 3 Zrotation Xrotation Yrotation
        End Site
        {
            OFFSET 0.0 -20.0 0.0
        }
    }
}
MOTION
Frames: 53
Frame Time: 0.03333333
0.000000 30.000000 0.000000 0.000000 0.000000 0.000000 0.000000 0.000000 0.000000 -0.000000 0.000000 0.000000 0.000000 0.000000 0.000000 0.000000 -0.000000 0.000000 0.000000 -0.000000 0.000000 0.000000 0.000000 0.000000
0.000000 30.000000 0.000000 0.000000 0.000000 0.000000 0.174497 0.069799 0.000000 -0.069799 0.000000 0.000000 0.000000 2.441477 0.000000 0.000000 -2.441477 0.000000 0.000000 -1.953181 0.000000 0.000000 1.953181 0.000000
0.000000 30.000000 0.000000 0.000000 0.000000 0.000000 0.348782 0.139513 0.000000 -0.139513 0.000000 0.000000 0.000000 4.871059 0.000000 0.000000 -4.871059 0.000000 0.000000 -3.896847 0.000000 0.000000 3.896847 0.000000
0.000000 30.000000 0.000000 0.000000 0.000000 0.000000 0.522642 0.209057 0.000000 -0.209057 0.000000 0.000000 0.000000 7.276909 0.000000 0.000000 -7.276909 0.000000 0.000000 -5.821527 0.000000 0.000000 5.821527 0.000000
0.000000 30.000000 0.000000 0.000000 0.000000 0.000000 0.695866 0.278346 0.000000 -0.278346 0.000000 0.000000 0.000000 9.647307 0.000000 0.000000 -9.647307 0.000000 0.000000 -7.717846 0.000000 0.000000 7.717846 0.000000
0.000000 30.000000 0.000000 0.000000 0.000000 0.000000 0.868241 0.347296 0.000000 -0.347296 0.000000 0.000000 0.000000 11.970705 0.000000 0.000000 -11.970705 0.000000 0.000000 -9.576564 0.000000 0.000000 9.576564 0.000000
0.000000 30.000000 0.000000 0.000000 0.000000 0.000000 1.039558 0.415823 0.000000 -0.415823 0.000000 0.000000 0.000000 14.235783 0.000000 0.000000 -14.235783 0.000000 0.000000 -11.388626 0.000000 0.000000 11.388626 0.000000
0.000000 30.000000 0.000000 0.000000 0.000000 0.000000 1.209609 0.483844 0.000000 -0.483844 0.000000 0.000000 0.000000 16.431505 0.000000 0.000000 -16.431505 0.000000 0.000000 -13.145204 0.000000 0.000000 13.145204 0.000000
0.000000 30.000000 0.000000 0.000000 0.000000 0.000000 1.378187 0.551275 0.000000 -0.551275 0.000000 0.000000 0.000000 18.547174 0.000000 0.000000 -18.547174 0.000000 0.000000 -14.837739 0.000000 0.000000 14.837739 0.000000
0.000000 30.000000 0.000000 0.000000 0.000000 0.000000 1.545085 0.618034 0.000000 -0.618034 0.000000 0.000000 0.000000 20.572484 0.000000 0.000000 -20.572484 0.000000 0.000000 -16.457987 0.000000 0.000000 16.457987 0.000000
0.000000 30.000000 0.000000 0.000000 0.000000 0.000000 1.710101 0.684040 0.000000 -0.684040 0.000000 0.000000 0.000000 22.497566 0.000000 0.000000 -22.497566 0.000000 0.000000 -17.998053 0.000000 0.000000 17.998053 0.000000
0.000000 30.000000 0.000000 0.000000 0.000000 0.000000 1.873033 0.749213 0.000000 -0.749213 0.000000 0.000000 0.000000 24.313043 0.000000 0.000000 -24.313043 0.000000 0.000000 -19.450434 0.000000 0.000000 19.450434 0.000000
0.000000 30.000000 0.000000 0.000000 0.000000 0.000000 2.033683 0.813473 0.000000 -0.813473 0.000000 0.000000 0.000000 26.010069 0.000000 0.000000 -26.010069 0.000000 0.000000 -20.808055 0.000000 0.000000 20.808055 0.000000
0.000000 30.000000 0.000000 0.000000 0.000000 0.000000 2.191856 0.876742 0.000000 -0.876742 0.000000 0.000000 0.000000 27.580376 0.000000 0.000000 -27.580376 0.000000 0.000000 -22.064301 0.000000 0.000000 22.064301 0.000000
0.000000 30.000000 0.000000 0.000000 0.000000 0.000000 2.347358 0.938943 0.000000 -0.938943 0.000000 0.000000 0.000000 29.016315 0.000000 0.000000 -29.016315 0.000000 0.000000 -23.213052 0.000000 0.000000 23.213052 0.000000
0.000000 30.000000 0.000000 0.000000 0.000000 0.000000 2.500000 1.000000 0.000000 -1.000000 0.000000 0.000000 0.000000 30.310889 0.000000 0.000000 -30.310889 0.000000 0.000000 -24.248711 0.000000 0.000000 24.248711 0.000000
0.000000 30.000000 0.000000 0.000000 0.000000 0.000000 2.649596 1.059839 0.000000 -1.059839 0.000000 0.000000 0.000000 31.457792 0.000000 0.000000 -31.457792 0.000000 0.000000 -25.166233 0.000000 0.000000 25.166233 0.000000
0.000000 30.000000 0.000000 0.000000 0.000000 0.000000 2.795965 1.118386 0.000000 -1.118386 0.000000 0.000000 0.000000 32.451435 0.000000 0.000000 -32.451435 0.000000 0.000000 -25.961148 0.000000 0.000000 25.961148 0.000000
0.000000 30.000000 0.000000 0.000000 0.000000 0.000000 2.938926 1.175571 0.000000 -1.175571 0.000000 0.000000 0.000000 33.286978 0.000000 0.000000 -33.286978 0.000000 0.000000 -26.629582 0.000000 0.000000 26.629582 0.000000
0.000000 30.000000 0.000000 0.000000 0.000000 0.000000 3.078307 1.231323 0.000000 -1.231323 0.000000 0.000000 0.000000 33.960350 0.000000 0.000000 -33.960350 0.000000 0.000000 -27.168280 0.000000 0.000000 27.168280 0.000000
0.000000 30.000000 0.000000 0.000000 0.000000 0.000000 3.213938 1.285575 0.000000 -1.285575 0.000000 0.000000 0.000000 34.468271 0.000000 0.000000 -34.468271 0.000000 0.000000 -27.574617 0.000000 0.000000 27.574617 0.000000
0.000000 30.000000 0.000000 0.000000 0.000000 0.000000 3.345653 1.338261 0.000000 -1.338261 0.000000 0.000000 0.000000 34.808266 0.000000 0.000000 -34.808266 0.000000 0.000000 -27.846613 0.000000 0.000000 27.846613 0.000000
0.000000 30.000000 0.000000 0.000000 0.000000 0.000000 3.473292 1.389317 0.000000 -1.389317 0.000000 0.000000 0.000000 34.978679 0.000000 0.000000 -34.978679 0.000000 0.000000 -27.982943 0.000000 0.000000 27.982943 0.000000
0.000000 30.000000 0.000000 0.000000 0.000000 0.000000 3.596699 1.438680 0.000000 -1.438680 0.000000 0.000000 0.000000 34.978679 0.000000 0.000000 -34.978679 0.000000 0.000000 -27.982943 0.000000 0.000000 27.982943 0.000000
0.000000 30.000000 0.000000 0.000000 0.000000 0.000000 3.715724 1.486290 0.000000 -1.486290 0.000000 0.000000 0.000000 34.808266 0.000000 0.000000 -34.808266 0.000000 0.000000 -27.846613 0.000000 0.000000 27.846613 0.000000
0.000000 30.000000 0.000000 0.000000 0.000000 0.000000 3.830222 1.532089 0.000000 -1.532089 0.000000 0.000000 0.000000 34.468271 0.000000 0.000000 -34.468271 0.000000 0.000000 -27.574617 0.000000 0.000000 27.574617 0.000000
0.000000 30.000000 0.000000 0.000000 0.000000 0.000000 3.940054 1.576022 0.000000 -1.576022 0.000000 0.000000 0.000000 33.960350 0.000000 0.000000 -33.960350 0.000000 0.000000 -27.168280 0.000000 0.000000 27.168280 0.000000
0.000000 30.000000 0.000000 0.000000 0.000000 0.000000 4.045085 1.618034 0.000000 -1.618034 0.000000 0.000000 0.000000 33.286978 0.000000 0.000000 -33.286978 0.000000 0.000000 -26.629582 0.000000 0.000000 26.629582 0.000000
0.000000 30.000000 0.000000 0.000000 0.000000 0.000000 4.145188 1.658075 0.000000 -1.658075 0.000000 0.000000 0.000000 32.451435 0.000000 0.000000 -32.451435 0.000000 0.000000 -25.961148 0.000000 0.000000 25.961148 0.000000
0.000000 30.000000 0.000000 0.000000 0.000000 0.000000 4.240240 1.696096 0.000000 -1.696096 0.000000 0.000000 0.000000 31.457792 0.000000 0.000000 -31.457792 0.000000 0.000000 -25.166233 0.000000 0.000000 25.166233 0.000000
0.000000 30.000000 0.000000 0.000000 0.000000 0.000000 4.330127 1.732051 0.000000 -1.732051 0.000000 0.000000 0.000000 30.310889 0.000000 0.000000 -30.310889 0.000000 0.000000 -24.248711 0.000000 0.000000 24.248711 0.000000
0.000000 30.000000 0.000000 0.000000 0.000000 0.000000 4.414738 1.765895 0.000000 -1.765895 0.000000 0.000000 0.000000 29.016315 0.000000 0.000000 -29.016315 0.000000 0.000000 -23.213052 0.000000 0.000000 23.213052 0.000000
0.000000 30.000000 0.000000 0.000000 0.000000 0.000000 4.493970 1.797588 0.000000 -1.797588 0.000000 0.000000 0.000000 27.580376 0.000000 0.000000 -27.580376 0.000000 0.000000 -22.064301 0.000000 0.000000 22.064301 0.000000
0.000000 30.000000 0.000000 0.000000 0.000000 0.000000 4.567727 1.827091 0.000000 -1.827091 0.000000 0.000000 0.000000 26.010069 0.000000 0.000000 -26.010069 0.000000 0.000000 -20.808055 0.000000 0.000000 20.808055 0.000000
0.000000 30.000000 0.000000 0.000000 0.000000 0.000000 4.635919 1.854368 0.000000 -1.854368 0.000000 0.000000 0.000000 24.313043 0.000000 0.000000 -24.313043 0.000000 0.000000 -19.450434 0.000000 0.000000 19.450434 0.000000
0.000000 30.000000 0.000000 0.000000 0.000000 0.000000 4.698463 1.879385 0.000000 -1.879385 0.000000 0.000000 0.000000 22.497566 0.000000 0.000000 -22.497566 0.000000 0.000000 -17.998053 0.000000 0.000000 17.998053 0.000000
0.000000 30.000000 0.000000 0.000000 0.000000 0.000000 4.755283 1.902113 0.000000 -1.902113 0.000000 0.000000 0.000000 20.572484 0.000000 0.000000 -20.572484 0.000000 0.000000 -16.457987 0.000000 0.000000 16.457987 0.000000
0.000000 30.000000 0.000000 0.000000 0.000000 0.000000 4.806308 1.922523 0.000000 -1.922523 0.000000 0.000000 0.000000 18.547174 0.000000 0.000000 -18.547174 0.000000 0.000000 -14.837739 0.000000 0.000000 14.837739 0.000000
0.000000 30.000000 0.000000 0.000000 0.000000 0.000000 4.851479 1.940591 0.000000 -1.940591 0.000000 0.000000 0.000000 16.431505 0.000000 0.000000 -16.431505 0.000000 0.000000 -13.145204 0.000000 0.000000 13.145204 0.000000
0.000000 30.000000 0.000000 0.000000 0.000000 0.000000 4.890738 1.956295 0.000000 -1.956295 0.000000 0.000000 0.000000 14.235783 0.000000 0.000000 -14.235783 0.000000 0.000000 -11.388626 0.000000 0.000000 11.388626 0.000000
0.000000 30.000000 0.000000 0.000000 0.000000 0.000000 4.924039 1.969616 0.000000 -1.969616 0.000000 0.000000 0.000000 11.970705 0.000000 0.000000 -11.970705 0.000000 0.000000 -9.576564 0.000000 0.000000 9.576564 0.000000
0.000000 30.000000 0.000000 0.000000 0.000000 0.000000 4.951340 1.980536 0.000000 -1.980536 0.000000 0.000000 0.000000 9.647307 0.000000 0.000000 -9.647307 0.000000 0.000000 -7.717846 0.000000 0.000000 7.717846 0.000000
0.000000 30.000000 0.000000 0.000000 0.000000 0.000000 4.972609 1.989044 0.000000 -1.989044 0.000000 0.000000 0.000000 7.276909 0.000000 0.000000 -7.276909 0.000000 0.000000 -5.821527 0.000000 0.000000 5.821527 0.000000
0.000000 30.000000 0.000000 0.000000 0.000000 0.000000 4.987820 1.995128 0.000000 -1.995128 0.000000 0.000000 0.000000 4.871059 0.000000 0.000000 -4.871059 0.000000 0.000000 -3.896847 0.000000 0.000000 3.896847 0.000000
0.000000 30.000000 0.000000 0.000000 0.000000 0.000000 4.996954 1.998782 0.000000 -1.998782 0.000000 0.000000 0.000000 2.441477 0.000000 0.000000 -2.441477 0.000000 0.000000 -1.953181 0.000000 0.000000 1.953181 0.000000
0.000000 30.000000 0.000000 0.000000 0.000000 0.000000 5.000000 2.000000 0.000000 -2.000000 0.000000 0.000000 0.000000 0.000000 0.000000 0.000000 -0.000000 0.000000 0.000000 -0.000000 0.000000 0.000000 0.000000 0.000000
0.000000 30.000000 0.000000 0.000000 0.000000 0.000000 4.996954 1.998782 0.000000 -1.998782 0.000000 0.000000 0.000000 -2.441477 0.000000 0.000000 2.441477 0.000000 0.000000 1.953181 0.000000 0.000000 -1.953181 0.000000
0.000000 30.000000 0.000000 0.000000 0.000000 0.000000 4.987820 1.995128 0.000000 -1.995128 0.000000 0.000000 0.000000 -4.871059 0.000000 0.000000 4.871059 0.000000 0.000000 3.896847 0.000000 0.000000 -3.896847 0.000000
0.000000 30.000000 0.000000 0.000000 0.000000 0.000000 4.972609 1.989044 0.000000 -1.989044 0.000000 0.000000 0.000000 -7.276909 0.000000 0.000000 7.276909 0.000000 0.000000 5.821527 0.000000 0.000000 -5.821527 0.000000
0.000000 30.000000 0.000000 0.000000 0.000000 0.000000 4.951340 1.980536 0.000000 -1.980536 0.000000 0.000000 0.000000 -9.647307 0.000000 0.000000 9.647307 0.000000 0.000000 7.717846 0.000000 0.000000 -7.717846 0.000000
0.000000 30.000000 0.000000 0.000000 0.000000 0.000000 4.924039 1.969616 0.000000 -1.969616 0.000000 0.000000 0.000000 -11.970705 0.000000 0.000000 11.970705 0.000000 0.000000 9.576564 0.000000 0.000000 -9.576564 0.000000
0.000000 30.000000 0.000000 0.000000 0.000000 0.000000 4.890738 1.956295 0.000000 -1.956295 0.000000 0.000000 0.000000 -14.235783 0.000000 0.000000 14.235783 0.000000 0.000000 11.388626 0.000000 0.000000 -11.388626 0.000000
0.000000 30.000000 0.000000 0.000000 0.000000 0.000000 4.851479 1.940591 0.000000 -1.940591 0.000000 0.000000 0.000000 -16.431505 0.000000 0.000000 16.431505 0.000000 0.000000 13.145204 0.000000 0.000000 -13.145204 0.000000
